<svg width="137" height="44" viewBox="0 0 137 44" fill="none" xmlns="http://www.w3.org/2000/svg">
<path d="M12.2643 11.6542C7.45646 12.4044 6.49814 14.114 6.61996 14.8751C6.27892 14.5978 6.11238 14.0257 6.07175 13.7743C6.01761 12.0891 5.94181 8.40477 6.07175 7.14904C6.20169 5.89331 7.04631 5.09016 7.45238 4.84556C13.7221 0.866352 19.3704 4.15241 23.756 6.92486C31.1301 10.5942 36.9734 7.37333 37.1765 5.43673C38.0089 6.27253 37.5419 9.28955 37.6232 13.0608C37.6881 16.0778 33.0887 17.0359 30.7809 17.1378C20.9338 17.1378 22.2535 11.0834 12.2643 11.6542Z" fill="white"/>
<path d="M29.7957 3.03604C26.9294 3.25579 23.6588 4.45463 22.3867 5.19447C28.6387 9.93893 36.2738 7.12418 36.4537 5.47954C36.6364 3.80984 32.9826 2.79171 29.7957 3.03604Z" fill="white"/>
<path d="M25.8659 17.2676C22.0819 16.235 19.7261 12.7643 17.6953 13.5936V30.7529C17.6953 33.4249 18.4541 34.9279 18.8335 35.3454C21.7874 37.8087 27.5651 42.5765 27.0448 41.9419C26.5245 41.3073 26.0421 39.1168 25.8659 38.1009V17.2676Z" fill="white"/>
<path d="M63.068 17.921H58.558V31H54.84V17.921H50.33V14.973H63.068V17.921ZM67.2196 19.417C68.085 19.417 68.8733 19.5527 69.5846 19.824C70.296 20.0953 70.9046 20.484 71.4106 20.99C71.924 21.496 72.32 22.112 72.5986 22.838C72.8846 23.5567 73.0276 24.367 73.0276 25.269C73.0276 26.1783 72.8846 26.9997 72.5986 27.733C72.32 28.459 71.924 29.0787 71.4106 29.592C70.9046 30.098 70.296 30.4903 69.5846 30.769C68.8733 31.0403 68.085 31.176 67.2196 31.176C66.347 31.176 65.5513 31.0403 64.8326 30.769C64.1213 30.4903 63.5053 30.098 62.9846 29.592C62.4713 29.0787 62.0716 28.459 61.7856 27.733C61.507 26.9997 61.3676 26.1783 61.3676 25.269C61.3676 24.367 61.507 23.5567 61.7856 22.838C62.0716 22.112 62.4713 21.496 62.9846 20.99C63.5053 20.484 64.1213 20.0953 64.8326 19.824C65.5513 19.5527 66.347 19.417 67.2196 19.417ZM67.2196 28.646C68.0043 28.646 68.58 28.371 68.9466 27.821C69.3206 27.2637 69.5076 26.4203 69.5076 25.291C69.5076 24.1617 69.3206 23.322 68.9466 22.772C68.58 22.222 68.0043 21.947 67.2196 21.947C66.413 21.947 65.8226 22.222 65.4486 22.772C65.0746 23.322 64.8876 24.1617 64.8876 25.291C64.8876 26.4203 65.0746 27.2637 65.4486 27.821C65.8226 28.371 66.413 28.646 67.2196 28.646ZM91.316 19.593L87.774 31H85.002C84.8553 31 84.7307 30.956 84.628 30.868C84.5253 30.78 84.4447 30.6333 84.386 30.428L82.758 24.741C82.6773 24.4843 82.604 24.2313 82.538 23.982C82.4793 23.7327 82.4243 23.4797 82.373 23.223C82.3217 23.4797 82.263 23.7363 82.197 23.993C82.1383 24.2497 82.0687 24.5063 81.988 24.763L80.338 30.428C80.228 30.8093 79.986 31 79.612 31H76.972L73.43 19.593H76.158C76.4 19.593 76.6017 19.6517 76.763 19.769C76.9317 19.879 77.0453 20.0183 77.104 20.187L78.248 25.302C78.3433 25.6907 78.4277 26.0683 78.501 26.435C78.5743 26.7943 78.6403 27.1573 78.699 27.524C78.7943 27.1573 78.8933 26.7943 78.996 26.435C79.106 26.0683 79.2233 25.6907 79.348 25.302L80.778 20.176C80.8367 20.0073 80.9467 19.868 81.108 19.758C81.2693 19.6407 81.46 19.582 81.68 19.582H83.198C83.44 19.582 83.6417 19.6407 83.803 19.758C83.9717 19.868 84.0853 20.0073 84.144 20.176L85.508 25.302C85.618 25.6907 85.7243 26.0683 85.827 26.435C85.937 26.8017 86.036 27.172 86.124 27.546C86.1827 27.1793 86.2523 26.8127 86.333 26.446C86.4137 26.0793 86.5053 25.698 86.608 25.302L87.818 20.187C87.8767 20.0183 87.9867 19.879 88.148 19.769C88.3093 19.6517 88.5 19.593 88.72 19.593H91.316ZM98.247 26.358C97.565 26.3873 97.004 26.446 96.564 26.534C96.124 26.622 95.7757 26.732 95.519 26.864C95.2624 26.996 95.0827 27.1463 94.98 27.315C94.8847 27.4837 94.837 27.667 94.837 27.865C94.837 28.2537 94.9434 28.5287 95.156 28.69C95.3687 28.844 95.6804 28.921 96.091 28.921C96.531 28.921 96.916 28.844 97.246 28.69C97.576 28.536 97.9097 28.2867 98.247 27.942V26.358ZM92.109 21.177C92.7984 20.5683 93.561 20.1173 94.397 19.824C95.2404 19.5233 96.1424 19.373 97.103 19.373C97.7924 19.373 98.412 19.4867 98.962 19.714C99.5194 19.934 99.9887 20.2457 100.37 20.649C100.759 21.045 101.056 21.518 101.261 22.068C101.466 22.618 101.569 23.2193 101.569 23.872V31H100.007C99.6844 31 99.4387 30.956 99.27 30.868C99.1087 30.78 98.973 30.5967 98.863 30.318L98.621 29.691C98.335 29.933 98.06 30.1457 97.796 30.329C97.532 30.5123 97.257 30.67 96.971 30.802C96.6924 30.9267 96.3917 31.0183 96.069 31.077C95.7537 31.143 95.4017 31.176 95.013 31.176C94.4924 31.176 94.0194 31.11 93.594 30.978C93.1687 30.8387 92.8057 30.637 92.505 30.373C92.2117 30.109 91.9844 29.7827 91.823 29.394C91.6617 28.998 91.581 28.5433 91.581 28.03C91.581 27.6193 91.6837 27.205 91.889 26.787C92.0944 26.3617 92.45 25.9767 92.956 25.632C93.462 25.28 94.144 24.9867 95.002 24.752C95.86 24.5173 96.9417 24.3853 98.247 24.356V23.872C98.247 23.2047 98.1077 22.7243 97.829 22.431C97.5577 22.1303 97.169 21.98 96.663 21.98C96.2597 21.98 95.9297 22.024 95.673 22.112C95.4164 22.2 95.1854 22.299 94.98 22.409C94.782 22.519 94.5877 22.618 94.397 22.706C94.2064 22.794 93.979 22.838 93.715 22.838C93.4804 22.838 93.2824 22.7793 93.121 22.662C92.9597 22.5447 92.8277 22.4053 92.725 22.244L92.109 21.177ZM106.895 20.825C107.115 20.6197 107.342 20.429 107.577 20.253C107.811 20.077 108.061 19.9303 108.325 19.813C108.596 19.6883 108.886 19.593 109.194 19.527C109.509 19.4537 109.85 19.417 110.217 19.417C110.84 19.417 111.39 19.527 111.867 19.747C112.351 19.9597 112.758 20.2603 113.088 20.649C113.418 21.0303 113.667 21.4887 113.836 22.024C114.004 22.552 114.089 23.1277 114.089 23.751V31H110.679V23.751C110.679 23.1937 110.55 22.761 110.294 22.453C110.037 22.1377 109.659 21.98 109.161 21.98C108.787 21.98 108.435 22.0607 108.105 22.222C107.782 22.376 107.467 22.5887 107.159 22.86V31H103.749V19.593H105.861C106.286 19.593 106.565 19.7837 106.697 20.165L106.895 20.825ZM120.226 31.176C119.684 31.176 119.203 31.099 118.785 30.945C118.375 30.7837 118.026 30.56 117.74 30.274C117.462 29.9807 117.249 29.6287 117.102 29.218C116.956 28.8073 116.882 28.349 116.882 27.843V21.947H115.914C115.738 21.947 115.588 21.892 115.463 21.782C115.339 21.6647 115.276 21.496 115.276 21.276V19.945L117.091 19.593L117.762 16.81C117.85 16.458 118.1 16.282 118.51 16.282H120.292V19.615H123.119V21.947H120.292V27.612C120.292 27.876 120.355 28.096 120.479 28.272C120.611 28.4407 120.798 28.525 121.04 28.525C121.165 28.525 121.268 28.514 121.348 28.492C121.436 28.4627 121.51 28.4333 121.568 28.404C121.634 28.3673 121.693 28.338 121.744 28.316C121.803 28.2867 121.869 28.272 121.942 28.272C122.045 28.272 122.126 28.2977 122.184 28.349C122.25 28.393 122.316 28.4663 122.382 28.569L123.416 30.186C122.976 30.516 122.481 30.7653 121.931 30.934C121.381 31.0953 120.813 31.176 120.226 31.176ZM129.739 19.417C130.605 19.417 131.393 19.5527 132.104 19.824C132.816 20.0953 133.424 20.484 133.93 20.99C134.444 21.496 134.84 22.112 135.118 22.838C135.404 23.5567 135.547 24.367 135.547 25.269C135.547 26.1783 135.404 26.9997 135.118 27.733C134.84 28.459 134.444 29.0787 133.93 29.592C133.424 30.098 132.816 30.4903 132.104 30.769C131.393 31.0403 130.605 31.176 129.739 31.176C128.867 31.176 128.071 31.0403 127.352 30.769C126.641 30.4903 126.025 30.098 125.504 29.592C124.991 29.0787 124.591 28.459 124.305 27.733C124.027 26.9997 123.887 26.1783 123.887 25.269C123.887 24.367 124.027 23.5567 124.305 22.838C124.591 22.112 124.991 21.496 125.504 20.99C126.025 20.484 126.641 20.0953 127.352 19.824C128.071 19.5527 128.867 19.417 129.739 19.417ZM129.739 28.646C130.524 28.646 131.1 28.371 131.466 27.821C131.84 27.2637 132.027 26.4203 132.027 25.291C132.027 24.1617 131.84 23.322 131.466 22.772C131.1 22.222 130.524 21.947 129.739 21.947C128.933 21.947 128.342 22.222 127.968 22.772C127.594 23.322 127.407 24.1617 127.407 25.291C127.407 26.4203 127.594 27.2637 127.968 27.821C128.342 28.371 128.933 28.646 129.739 28.646Z" fill="white"/>
</svg>
